<?xml version="1.0" encoding="UTF-8" standalone="no" ?>
<!DOCTYPE svg PUBLIC "-//W3C//DTD SVG 1.1//EN" "http://www.w3.org/Graphics/SVG/1.1/DTD/svg11.dtd">
<svg width="827px" height="376px" viewBox="-55.199997 -36.534313 826.757568 375.934296" xmlns="http://www.w3.org/2000/svg">
  <g id="topology">
    <g id="links">
      <g id="L-AHA-BRR" class="link">
        <g data-from="AHA" data-to="BRR" fill="#206abc" stroke-width="0" class="link-segment">
          <path fill="#b6e80f" d="M141.464,32.536 187.435,78.506 194.506,78.506 194.506,71.435 148.536,25.464 Z"/>
          <g class="link-label" transform="translate(171.52, 55.52)">
            <rect ry="3" stroke="#000000" class="link-label-box" x="-14" width="28" rx="3" opacity="0.900" fill="#ffffff" stroke-width="1" y="-6.500" height="13"/>
            <text y="4" font-size="8" text-anchor="middle" fill="#000000" font-family="monospace" class="link-label-text" x="0">3.8G</text>
          </g>
        </g>
        <g data-from="BRR" data-to="AHA" fill="#206abc" stroke-width="0" class="link-segment">
          <path fill="#b6e80f" d="M261,82 207.142,82 A5,5 0 0,1 203.607,80.536 L201.577,78.506 194.506,78.506 194.506,85.577 196.536,87.607 A15,15 0 0,0 207.142,92 L261,92 Z"/>
          <g transform="translate(223.49, 87.00)" class="link-label">
            <rect stroke="#000000" class="link-label-box" width="28" height="13" rx="3" ry="3" opacity="0.900" fill="#ffffff" stroke-width="1" x="-14" y="-6.500"/>
            <text font-size="8" text-anchor="middle" fill="#000000" font-family="monospace" class="link-label-text" x="0" y="4">4.1G</text>
          </g>
        </g>
      </g>
      <g id="L-AHA-OHI" class="link">
        <g data-from="AHA" data-to="OHI" fill="#206abc" stroke-width="0" class="link-segment">
          <path fill="#1b8864" d="M148.536,32.536 174.607,6.464 A5,5 0 0,1 178.142,5.000 L423.994,5 428.994,0 423.994,-5 178.142,-5 A15,15 0 0,0 167.536,-0.607 L141.464,25.464 Z"/>
          <g class="link-label" transform="translate(283.49, 0.00)">
            <rect stroke-width="1" x="-14" y="-6.500" width="28" ry="3" rx="3" opacity="0.900" fill="#ffffff" stroke="#000000" class="link-label-box" height="13"/>
            <text font-size="8" text-anchor="middle" fill="#000000" font-family="monospace" class="link-label-text" x="0" y="4">9G</text>
          </g>
        </g>
        <g data-from="OHI" data-to="AHA" fill="#206abc" stroke-width="0" class="link-segment">
          <path fill="#1b8864" d="M725,-5 433.994,-5 428.994,0 433.994,5 725,5 Z"/>
          <g class="link-label" transform="translate(574.50, 0.00)">
            <rect stroke-width="1" x="-14" width="28" ry="3" stroke="#000000" fill="#ffffff" class="link-label-box" y="-6.500" height="13" rx="3" opacity="0.900"/>
            <text y="4" font-size="8" text-anchor="middle" fill="#000000" font-family="monospace" class="link-label-text" x="0">9G</text>
          </g>
        </g>
      </g>
      <g id="L-ARG-AHA" class="link">
        <g data-from="ARG" data-to="AHA" fill="#206abc" stroke-width="0" class="link-segment">
          <path fill="#1d4d78" d="M0,92 64.488,92 69.488,87 64.488,82 0,82 Z"/>
          <g class="link-label" transform="translate(37.24, 87.00)">
            <rect height="13" rx="3" fill="#ffffff" stroke-width="1" class="link-label-box" x="-14" y="-6.500" width="28" ry="3" opacity="0.900" stroke="#000000"/>
            <text font-size="8" text-anchor="middle" fill="#000000" font-family="monospace" class="link-label-text" x="0" y="4">5M</text>
          </g>
        </g>
        <g fill="#206abc" stroke-width="0" class="link-segment" data-from="AHA" data-to="ARG">
          <path fill="#1d4d78" d="M141.464,25.464 86.393,80.536 A5,5 0 0,1 82.858,82 L74.488,82 69.488,87 74.488,92 82.858,92 A15,15 0 0,0 93.464,87.607 L148.536,32.536 Z"/>
          <g class="link-label" transform="translate(106.39, 67.61)">
            <rect class="link-label-box" x="-14" y="-6.500" opacity="0.900" fill="#ffffff" stroke-width="1" rx="3" ry="3" stroke="#000000" width="28" height="13"/>
            <text font-family="monospace" class="link-label-text" x="0" y="4" font-size="8" text-anchor="middle" fill="#000000">20M</text>
          </g>
        </g>
      </g>
      <g id="L-ARG-HMH" class="link">
        <g fill="#206abc" stroke-width="0" class="link-segment" data-from="ARG" data-to="HMH">
          <path fill="#faa725" d="M-5,87 -5,140 0,145 5,140 5,87 Z"/>
          <g class="link-label" transform="translate(0.00, 118.50)">
            <rect fill="#ffffff" y="-6.500" width="28" rx="3" ry="3" opacity="0.900" stroke="#000000" stroke-width="1" class="link-label-box" x="-14" height="13"/>
            <text class="link-label-text" x="0" y="4" font-size="8" text-anchor="middle" fill="#000000" font-family="monospace">540M</text>
          </g>
        </g>
        <g data-from="HMH" data-to="ARG" fill="#206abc" stroke-width="0" class="link-segment">
          <path fill="#faa725" d="M5,203 5,150 0,145 -5,150 -5,203 Z"/>
          <g class="link-label" transform="translate(0.00, 171.50)">
            <rect class="link-label-box" x="-14" height="13" rx="3" ry="3" opacity="0.900" fill="#ffffff" stroke="#000000" stroke-width="1" y="-6.500" width="28"/>
            <text font-size="8" text-anchor="middle" fill="#000000" font-family="monospace" class="link-label-text" x="0" y="4">550M</text>
          </g>
        </g>
      </g>
      <g id="L-BRR-OHI" class="link">
        <g fill="#206abc" stroke-width="0" class="link-segment" data-from="BRR" data-to="OHI">
          <path fill="#1d667d" d="M261,92 506.018,92 511.018,87 506.018,82 261,82 Z"/>
          <g class="link-label" transform="translate(388.51, 87.00)">
            <rect y="-6.500" height="13" rx="3" ry="3" opacity="0.900" stroke="#000000" class="link-label-box" width="28" fill="#ffffff" stroke-width="1" x="-14"/>
            <text text-anchor="middle" fill="#000000" font-family="monospace" class="link-label-text" x="0" y="4" font-size="8">300M</text>
          </g>
        </g>
        <g stroke-width="0" class="link-segment" data-from="OHI" data-to="BRR" fill="#206abc">
          <path fill="#1d667d" d="M721.464,-3.536 637.393,80.536 A5,5 0 0,1 633.858,82 L516.018,82 511.018,87 516.018,92 633.858,92 A15,15 0 0,0 644.464,87.607 L728.536,3.536 Z"/>
          <g class="link-label" transform="translate(633.53, 87.00)">
            <rect height="13" rx="3" ry="3" fill="#ffffff" stroke="#000000" stroke-width="1" class="link-label-box" y="-6.500" opacity="0.900" x="-14" width="28"/>
            <text fill="#000000" font-family="monospace" class="link-label-text" x="0" y="4" font-size="8" text-anchor="middle">100M</text>
          </g>
        </g>
      </g>
      <g id="L-HMH-URG" class="link">
        <g fill="#206abc" stroke-width="0" class="link-segment" data-from="HMH" data-to="URG">
          <path fill="#1c717f" d="M0,208 24,208 29,203 24,198 0,198 Z"/>
        </g>
        <g data-from="URG" data-to="HMH" fill="#206abc" stroke-width="0" class="link-segment">
          <path d="M58,198 34,198 29,203 34,208 58,208 Z" fill="#1c717f"/>
        </g>
      </g>
      <g class="link" id="L-RGB-GRG">
        <g data-from="RGB" data-to="GRG" fill="#206abc" stroke-width="0" class="link-segment">
          <path fill="#d1f00e" d="M406,321.500 432.500,321.500 435,319 432.500,316.500 406,316.500 Z"/>
        </g>
        <g data-from="GRG" data-to="RGB" fill="#206abc" stroke-width="0" class="link-segment">
          <path fill="#d1f00e" d="M464,316.500 437.500,316.500 435,319 437.500,321.500 464,321.500 Z"/>
        </g>
      </g>
      <g id="L-RGR-GRG" class="link">
        <g fill="#206abc" stroke-width="0" class="link-segment" data-from="RGR" data-to="GRG">
          <path fill="#1b8864" d="M433.232,262.768 456.218,285.753 459.753,285.753 459.753,282.217 436.768,259.232 Z"/>
        </g>
        <g data-from="GRG" data-to="RGR" fill="#206abc" stroke-width="0" class="link-segment">
          <path fill="#1b8864" d="M466.500,319 466.500,290 A2.500,2.500 0 0,0 465.768,288.232 L463.289,285.753 459.753,285.753 459.753,289.289 461.500,291.036 461.500,319 Z"/>
        </g>
      </g>
      <g id="L-RGR-OHI" class="link">
        <g data-from="RGR" data-to="OHI" fill="#206abc" stroke-width="0" class="link-segment">
          <path fill="#37be16" d="M435,266 546.858,266 A15,15 0 0,0 557.464,261.607 L627.747,191.324 627.747,184.253 620.676,184.253 550.393,254.536 A5,5 0 0,1 546.858,256 L435,256 Z"/>
          <g class="link-label" transform="translate(549.77, 261.00)">
            <rect stroke-width="1" class="link-label-box" x="-14" y="-6.500" width="28" height="13" fill="#ffffff" stroke="#000000" ry="3" opacity="0.900" rx="3"/>
            <text font-family="monospace" class="link-label-text" x="0" y="4" font-size="8" text-anchor="middle" fill="#000000">26G</text>
          </g>
        </g>
        <g data-from="OHI" data-to="RGR" fill="#206abc" stroke-width="0" class="link-segment">
          <path fill="#37be16" d="M720,0 720,82.858 A5,5 0 0,1 718.536,86.393 L627.747,177.182 627.747,184.253 634.818,184.253 725.607,93.464 A15,15 0 0,0 730,82.858 L730,0 Z"/>
          <g class="link-label" transform="translate(705.36, 106.64)">
            <rect height="13" ry="3" stroke="#000000" class="link-label-box" x="-14" width="28" rx="3" opacity="0.900" fill="#ffffff" stroke-width="1" y="-6.500"/>
            <text fill="#000000" font-family="monospace" class="link-label-text" x="0" y="4" font-size="8" text-anchor="middle">28G</text>
          </g>
        </g>
      </g>
      <g id="L-RGR-RGB" class="link">
        <g data-from="RGR" data-to="RGB" fill="#206abc" stroke-width="0" class="link-segment">
          <path fill="#f6df15" d="M433.232,259.232 410.247,282.217 410.247,285.753 413.782,285.753 436.768,262.768 Z"/>
        </g>
        <g data-to="RGR" fill="#206abc" stroke-width="0" class="link-segment" data-from="RGB">
          <path fill="#f6df15" d="M408.500,319 408.500,291.036 410.247,289.289 410.247,285.753 406.711,285.753 404.232,288.232 A2.500,2.500 0 0,0 403.500,290 L403.500,319 Z"/>
        </g>
      </g>
      <g id="L-URG-AHA" class="link">
        <g class="link-segment" data-from="URG" data-to="AHA" fill="#206abc" stroke-width="0">
          <path fill="#1c837d" d="M61.536,206.536 132.259,135.812 132.259,128.741 125.188,128.741 54.464,199.464 Z"/>
          <g class="link-label" transform="translate(96.90, 164.10)">
            <rect x="-14" rx="3" fill="#ffffff" stroke="#000000" stroke-width="1" class="link-label-box" y="-6.500" width="28" height="13" ry="3" opacity="0.900"/>
            <text font-size="8" text-anchor="middle" fill="#000000" font-family="monospace" class="link-label-text" x="0" y="4">600M</text>
          </g>
        </g>
        <g data-to="URG" fill="#206abc" stroke-width="0" class="link-segment" data-from="AHA">
          <path fill="#1c837d" d="M140,29 140,111.858 A5,5 0 0,1 138.536,115.393 L132.259,121.670 132.259,128.741 139.330,128.741 145.607,122.464 A15,15 0 0,0 150,111.858 L150,29 Z"/>
          <g class="link-label" transform="translate(145.00, 84.01)">
            <rect stroke="#000000" y="-6.500" width="28" rx="3" opacity="0.900" stroke-width="1" class="link-label-box" x="-14" height="13" ry="3" fill="#ffffff"/>
            <text text-anchor="middle" fill="#000000" font-family="monospace" class="link-label-text" x="0" y="4" font-size="8">100M</text>
          </g>
        </g>
      </g>
      <g id="L-URG-RGR" class="link">
        <g fill="#206abc" stroke-width="0" class="link-segment" data-to="RGR" data-from="URG">
          <path fill="#1b8864" d="M58,208 253.512,208 258.512,203 253.512,198 58,198 Z"/>
          <g class="link-label" transform="translate(160.76, 203.00)">
            <rect ry="3" opacity="0.900" rx="3" stroke-width="1" class="link-label-box" x="-14" y="-6.500" width="28" height="13" fill="#ffffff" stroke="#000000"/>
            <text font-family="monospace" class="link-label-text" x="0" y="4" font-size="8" text-anchor="middle" fill="#000000">9G</text>
          </g>
        </g>
        <g fill="#206abc" stroke-width="0" class="link-segment" data-from="RGR" data-to="URG">
          <path fill="#1b8864" d="M438.536,257.464 383.464,202.393 A15,15 0 0,0 372.858,198 L263.512,198 258.512,203 263.512,208 372.858,208 A5,5 0 0,1 376.393,209.464 L431.464,264.536 Z"/>
          <g class="link-label" transform="translate(356.27, 203.00)">
            <rect stroke-width="1" class="link-label-box" x="-14" ry="3" opacity="0.900" fill="#ffffff" stroke="#000000" y="-6.500" width="28" height="13" rx="3"/>
            <text x="0" y="4" font-size="8" text-anchor="middle" fill="#000000" font-family="monospace" class="link-label-text">11G</text>
          </g>
        </g>
      </g>
      <g id="L-URG-RGR-2" class="link">
        <g data-from="URG" data-to="RGR" fill="#206abc" stroke-width="0" class="link-segment">
          <path fill="#1d667d" d="M55.172,205.828 110.243,260.900 A14,14 0 0,0 120.142,265 L230.488,265 234.488,261 230.488,257 120.142,257 A6,6 0 0,1 115.899,255.243 L60.828,200.172 Z"/>
          <g class="link-label" transform="translate(138.23, 261.00)">
            <rect opacity="0.900" stroke-width="1" class="link-label-box" x="-14" y="-6.500" fill="#ffffff" stroke="#000000" width="28" height="13" rx="3" ry="3"/>
            <text y="4" font-size="8" text-anchor="middle" fill="#000000" font-family="monospace" class="link-label-text" x="0">3M</text>
          </g>
        </g>
        <g fill="#206abc" stroke-width="0" class="link-segment" data-from="RGR" data-to="URG">
          <path fill="#1d667d" d="M435,257 238.488,257 234.488,261 238.488,265 435,265 Z"/>
          <g class="link-label" transform="translate(330.74, 261.00)">
            <rect opacity="0.900" x="-14" height="13" ry="3" y="-6.500" width="28" rx="3" fill="#ffffff" stroke="#000000" stroke-width="1" class="link-label-box"/>
            <text fill="#000000" font-family="monospace" class="link-label-text" x="0" y="4" font-size="8" text-anchor="middle">1M</text>
          </g>
        </g>
      </g>
    </g>
    <g id="nodes">
      <g id="N-AHA" data-node="AHA">
        <text x="137.346" y="10.522" font-size="16" text-anchor="end" fill="#000000" font-family="sans-serif" class="node-label-text">AHA</text>
        <circle fill="#ffffff" stroke="#509ce0" stroke-width="5" class="node" cx="145" cy="29" r="15"/>
      </g>
      <g id="N-ARG" data-node="ARG">
        <text font-size="16" text-anchor="end" fill="#000000" font-family="sans-serif" class="node-label-text" x="-14" y="95">ARG</text>
        <circle class="node" cx="0" cy="87" r="10" fill="#ffffff" stroke="#509ce0" stroke-width="4"/>
      </g>
      <g data-node="BRR" id="N-BRR">
        <text class="node-label-text" x="261" y="117" font-size="16" text-anchor="middle" fill="#000000" font-family="sans-serif">BRR</text>
        <circle r="10" fill="#ffffff" stroke="#509ce0" stroke-width="4" class="node" cx="261" cy="87"/>
      </g>
      <g data-node="GRG" id="N-GRG">
        <text text-anchor="start" fill="#000000" font-family="sans-serif" class="node-label-text" x="478" y="327" font-size="16">GRG</text>
        <circle cy="319" r="10" fill="#ffffff" stroke="#509ce0" stroke-width="4" class="node" cx="464"/>
      </g>
      <g data-node="HMH" id="N-HMH">
        <text y="211" font-size="16" text-anchor="end" fill="#000000" font-family="sans-serif" class="node-label-text" x="-14">HMH</text>
        <circle class="node" cx="0" cy="203" r="10" fill="#ffffff" stroke="#509ce0" stroke-width="4"/>
      </g>
      <g id="N-OHI" data-node="OHI">
        <text class="node-label-text" x="730.358" y="-12.934" font-size="16" text-anchor="start" fill="#000000" font-family="sans-serif">OHI</text>
        <circle r="10" fill="#ffffff" stroke="#509ce0" stroke-width="4" class="node" cx="725" cy="0"/>
      </g>
      <g data-node="RGB" id="N-RGB">
        <text fill="#000000" font-family="sans-serif" class="node-label-text" x="392" y="327" font-size="16" text-anchor="end">RGB</text>
        <circle cx="406" cy="319" r="10" fill="#ffffff" stroke="#509ce0" stroke-width="4" class="node"/>
      </g>
      <g data-node="RGR" id="N-RGR">
        <text y="248.066" font-size="16" text-anchor="start" fill="#000000" font-family="sans-serif" class="node-label-text" x="440.358">RGR</text>
        <circle fill="#ffffff" stroke="#509ce0" stroke-width="4" class="node" cx="435" cy="261" r="10"/>
      </g>
      <g data-node="URG" id="N-URG">
        <text y="231.934" font-size="16" text-anchor="end" fill="#000000" font-family="sans-serif" class="node-label-text" x="52.642">URG</text>
        <circle fill="#ffffff" stroke="#509ce0" stroke-width="4" class="node" cx="58" cy="203" r="10"/>
      </g>
    </g>
  </g>
</svg>